solid ascii
  facet normal 0.000000e+000 0.000000e+000 1.000000e+000
    outer loop
      vertex   0.000000e+000 5.700000e+001 3.000000e+000
      vertex   -5.200000e+001 5.700000e+001 3.000000e+000
      vertex   0.000000e+000 5.000000e+001 3.000000e+000
    endloop
  endfacet
  facet normal 0.000000e+000 0.000000e+000 1.334120e-001
    outer loop
      vertex   0.000000e+000 5.000000e+001 3.000000e+000
      vertex   -5.200000e+001 5.700000e+001 3.000000e+000
      vertex   -5.200000e+001 5.000000e+001 3.000000e+000
    endloop
  endfacet
  facet normal 0.000000e+000 -0.000000e+000 9.910607e-001
    outer loop
      vertex   -5.200000e+001 5.000000e+001 3.000000e+000
      vertex   -5.200000e+001 5.700000e+001 3.000000e+000
      vertex   -1.040000e+002 5.700000e+001 3.000000e+000
    endloop
  endfacet
  facet normal 0.000000e+000 0.000000e+000 1.334120e-001
    outer loop
      vertex   -5.200000e+001 5.000000e+001 3.000000e+000
      vertex   -1.040000e+002 5.700000e+001 3.000000e+000
      vertex   -1.040000e+002 5.000000e+001 3.000000e+000
    endloop
  endfacet
  facet normal 0.000000e+000 -0.000000e+000 9.910607e-001
    outer loop
      vertex   -1.040000e+002 5.000000e+001 3.000000e+000
      vertex   -1.040000e+002 5.700000e+001 3.000000e+000
      vertex   -1.560000e+002 5.700000e+001 3.000000e+000
    endloop
  endfacet
  facet normal 0.000000e+000 0.000000e+000 1.334120e-001
    outer loop
      vertex   -1.040000e+002 5.000000e+001 3.000000e+000
      vertex   -1.560000e+002 5.700000e+001 3.000000e+000
      vertex   -1.560000e+002 5.000000e+001 3.000000e+000
    endloop
  endfacet
  facet normal 0.000000e+000 -0.000000e+000 9.910607e-001
    outer loop
      vertex   -1.560000e+002 5.000000e+001 3.000000e+000
      vertex   -1.560000e+002 5.700000e+001 3.000000e+000
      vertex   -2.080000e+002 5.700000e+001 3.000000e+000
    endloop
  endfacet
  facet normal 0.000000e+000 0.000000e+000 1.334120e-001
    outer loop
      vertex   -1.560000e+002 5.000000e+001 3.000000e+000
      vertex   -2.080000e+002 5.700000e+001 3.000000e+000
      vertex   -2.080000e+002 5.000000e+001 3.000000e+000
    endloop
  endfacet
  facet normal 0.000000e+000 -0.000000e+000 9.910607e-001
    outer loop
      vertex   -2.080000e+002 5.000000e+001 3.000000e+000
      vertex   -2.080000e+002 5.700000e+001 3.000000e+000
      vertex   -2.600000e+002 5.700000e+001 3.000000e+000
    endloop
  endfacet
  facet normal 0.000000e+000 0.000000e+000 1.334120e-001
    outer loop
      vertex   -2.080000e+002 5.000000e+001 3.000000e+000
      vertex   -2.600000e+002 5.700000e+001 3.000000e+000
      vertex   -2.600000e+002 5.000000e+001 3.000000e+000
    endloop
  endfacet
  facet normal 0.000000e+000 -0.000000e+000 9.910607e-001
    outer loop
      vertex   -2.600000e+002 5.000000e+001 3.000000e+000
      vertex   -2.600000e+002 5.700000e+001 3.000000e+000
      vertex   -3.120000e+002 5.700000e+001 3.000000e+000
    endloop
  endfacet
  facet normal 0.000000e+000 0.000000e+000 1.334120e-001
    outer loop
      vertex   -2.600000e+002 5.000000e+001 3.000000e+000
      vertex   -3.120000e+002 5.700000e+001 3.000000e+000
      vertex   -3.120000e+002 5.000000e+001 3.000000e+000
    endloop
  endfacet
  facet normal 0.000000e+000 -0.000000e+000 9.910607e-001
    outer loop
      vertex   -3.120000e+002 5.000000e+001 3.000000e+000
      vertex   -3.120000e+002 5.700000e+001 3.000000e+000
      vertex   -3.640000e+002 5.700000e+001 3.000000e+000
    endloop
  endfacet
  facet normal 0.000000e+000 0.000000e+000 1.334120e-001
    outer loop
      vertex   -3.120000e+002 5.000000e+001 3.000000e+000
      vertex   -3.640000e+002 5.700000e+001 3.000000e+000
      vertex   -3.640000e+002 5.000000e+001 3.000000e+000
    endloop
  endfacet
  facet normal 0.000000e+000 -0.000000e+000 9.910607e-001
    outer loop
      vertex   -3.640000e+002 5.000000e+001 3.000000e+000
      vertex   -3.640000e+002 5.700000e+001 3.000000e+000
      vertex   -4.160000e+002 5.700000e+001 3.000000e+000
    endloop
  endfacet
  facet normal 0.000000e+000 0.000000e+000 1.334120e-001
    outer loop
      vertex   -3.640000e+002 5.000000e+001 3.000000e+000
      vertex   -4.160000e+002 5.700000e+001 3.000000e+000
      vertex   -4.160000e+002 5.000000e+001 3.000000e+000
    endloop
  endfacet
  facet normal 0.000000e+000 -0.000000e+000 9.910607e-001
    outer loop
      vertex   -4.160000e+002 5.000000e+001 3.000000e+000
      vertex   -4.160000e+002 5.700000e+001 3.000000e+000
      vertex   -4.680000e+002 5.700000e+001 3.000000e+000
    endloop
  endfacet
  facet normal 0.000000e+000 0.000000e+000 1.334120e-001
    outer loop
      vertex   -4.160000e+002 5.000000e+001 3.000000e+000
      vertex   -4.680000e+002 5.700000e+001 3.000000e+000
      vertex   -4.680000e+002 5.000000e+001 3.000000e+000
    endloop
  endfacet
  facet normal 0.000000e+000 -0.000000e+000 9.910607e-001
    outer loop
      vertex   -4.680000e+002 5.000000e+001 3.000000e+000
      vertex   -4.680000e+002 5.700000e+001 3.000000e+000
      vertex   -5.200000e+002 5.700000e+001 3.000000e+000
    endloop
  endfacet
  facet normal 0.000000e+000 0.000000e+000 1.334120e-001
    outer loop
      vertex   -4.680000e+002 5.000000e+001 3.000000e+000
      vertex   -5.200000e+002 5.700000e+001 3.000000e+000
      vertex   -5.200000e+002 5.000000e+001 3.000000e+000
    endloop
  endfacet
  facet normal 0.000000e+000 0.000000e+000 -1.000000e+000
    outer loop
      vertex   0.000000e+000 5.000000e+001 0.000000e+000
      vertex   -5.200000e+001 5.000000e+001 0.000000e+000
      vertex   0.000000e+000 5.700000e+001 0.000000e+000
    endloop
  endfacet
  facet normal -0.000000e+000 0.000000e+000 -1.334120e-001
    outer loop
      vertex   0.000000e+000 5.700000e+001 0.000000e+000
      vertex   -5.200000e+001 5.000000e+001 0.000000e+000
      vertex   -5.200000e+001 5.700000e+001 0.000000e+000
    endloop
  endfacet
  facet normal 0.000000e+000 -0.000000e+000 -9.910607e-001
    outer loop
      vertex   -5.200000e+001 5.700000e+001 0.000000e+000
      vertex   -5.200000e+001 5.000000e+001 0.000000e+000
      vertex   -1.040000e+002 5.000000e+001 0.000000e+000
    endloop
  endfacet
  facet normal -0.000000e+000 0.000000e+000 -1.334120e-001
    outer loop
      vertex   -5.200000e+001 5.700000e+001 0.000000e+000
      vertex   -1.040000e+002 5.000000e+001 0.000000e+000
      vertex   -1.040000e+002 5.700000e+001 0.000000e+000
    endloop
  endfacet
  facet normal 0.000000e+000 -0.000000e+000 -9.910607e-001
    outer loop
      vertex   -1.040000e+002 5.700000e+001 0.000000e+000
      vertex   -1.040000e+002 5.000000e+001 0.000000e+000
      vertex   -1.560000e+002 5.000000e+001 0.000000e+000
    endloop
  endfacet
  facet normal -0.000000e+000 0.000000e+000 -1.334120e-001
    outer loop
      vertex   -1.040000e+002 5.700000e+001 0.000000e+000
      vertex   -1.560000e+002 5.000000e+001 0.000000e+000
      vertex   -1.560000e+002 5.700000e+001 0.000000e+000
    endloop
  endfacet
  facet normal 0.000000e+000 -0.000000e+000 -9.910607e-001
    outer loop
      vertex   -1.560000e+002 5.700000e+001 0.000000e+000
      vertex   -1.560000e+002 5.000000e+001 0.000000e+000
      vertex   -2.080000e+002 5.000000e+001 0.000000e+000
    endloop
  endfacet
  facet normal -0.000000e+000 0.000000e+000 -1.334120e-001
    outer loop
      vertex   -1.560000e+002 5.700000e+001 0.000000e+000
      vertex   -2.080000e+002 5.000000e+001 0.000000e+000
      vertex   -2.080000e+002 5.700000e+001 0.000000e+000
    endloop
  endfacet
  facet normal 0.000000e+000 -0.000000e+000 -9.910607e-001
    outer loop
      vertex   -2.080000e+002 5.700000e+001 0.000000e+000
      vertex   -2.080000e+002 5.000000e+001 0.000000e+000
      vertex   -2.600000e+002 5.000000e+001 0.000000e+000
    endloop
  endfacet
  facet normal -0.000000e+000 0.000000e+000 -1.334120e-001
    outer loop
      vertex   -2.080000e+002 5.700000e+001 0.000000e+000
      vertex   -2.600000e+002 5.000000e+001 0.000000e+000
      vertex   -2.600000e+002 5.700000e+001 0.000000e+000
    endloop
  endfacet
  facet normal 0.000000e+000 -0.000000e+000 -9.910607e-001
    outer loop
      vertex   -2.600000e+002 5.700000e+001 0.000000e+000
      vertex   -2.600000e+002 5.000000e+001 0.000000e+000
      vertex   -3.120000e+002 5.000000e+001 0.000000e+000
    endloop
  endfacet
  facet normal -0.000000e+000 0.000000e+000 -1.334120e-001
    outer loop
      vertex   -2.600000e+002 5.700000e+001 0.000000e+000
      vertex   -3.120000e+002 5.000000e+001 0.000000e+000
      vertex   -3.120000e+002 5.700000e+001 0.000000e+000
    endloop
  endfacet
  facet normal 0.000000e+000 -0.000000e+000 -9.910607e-001
    outer loop
      vertex   -3.120000e+002 5.700000e+001 0.000000e+000
      vertex   -3.120000e+002 5.000000e+001 0.000000e+000
      vertex   -3.640000e+002 5.000000e+001 0.000000e+000
    endloop
  endfacet
  facet normal -0.000000e+000 0.000000e+000 -1.334120e-001
    outer loop
      vertex   -3.120000e+002 5.700000e+001 0.000000e+000
      vertex   -3.640000e+002 5.000000e+001 0.000000e+000
      vertex   -3.640000e+002 5.700000e+001 0.000000e+000
    endloop
  endfacet
  facet normal 0.000000e+000 -0.000000e+000 -9.910607e-001
    outer loop
      vertex   -3.640000e+002 5.700000e+001 0.000000e+000
      vertex   -3.640000e+002 5.000000e+001 0.000000e+000
      vertex   -4.160000e+002 5.000000e+001 0.000000e+000
    endloop
  endfacet
  facet normal -0.000000e+000 0.000000e+000 -1.334120e-001
    outer loop
      vertex   -3.640000e+002 5.700000e+001 0.000000e+000
      vertex   -4.160000e+002 5.000000e+001 0.000000e+000
      vertex   -4.160000e+002 5.700000e+001 0.000000e+000
    endloop
  endfacet
  facet normal 0.000000e+000 -0.000000e+000 -9.910607e-001
    outer loop
      vertex   -4.160000e+002 5.700000e+001 0.000000e+000
      vertex   -4.160000e+002 5.000000e+001 0.000000e+000
      vertex   -4.680000e+002 5.000000e+001 0.000000e+000
    endloop
  endfacet
  facet normal -0.000000e+000 0.000000e+000 -1.334120e-001
    outer loop
      vertex   -4.160000e+002 5.700000e+001 0.000000e+000
      vertex   -4.680000e+002 5.000000e+001 0.000000e+000
      vertex   -4.680000e+002 5.700000e+001 0.000000e+000
    endloop
  endfacet
  facet normal 0.000000e+000 -0.000000e+000 -9.910607e-001
    outer loop
      vertex   -4.680000e+002 5.700000e+001 0.000000e+000
      vertex   -4.680000e+002 5.000000e+001 0.000000e+000
      vertex   -5.200000e+002 5.000000e+001 0.000000e+000
    endloop
  endfacet
  facet normal -0.000000e+000 0.000000e+000 -1.334120e-001
    outer loop
      vertex   -4.680000e+002 5.700000e+001 0.000000e+000
      vertex   -5.200000e+002 5.000000e+001 0.000000e+000
      vertex   -5.200000e+002 5.700000e+001 0.000000e+000
    endloop
  endfacet
  facet normal 0.000000e+000 -1.000000e+000 0.000000e+000
    outer loop
      vertex   -5.200000e+002 5.000000e+001 3.000000e+000
      vertex   -5.200000e+002 5.000000e+001 0.000000e+000
      vertex   -4.680000e+002 5.000000e+001 3.000000e+000
    endloop
  endfacet
  facet normal 0.000000e+000 -9.983400e-001 -0.000000e+000
    outer loop
      vertex   -4.680000e+002 5.000000e+001 3.000000e+000
      vertex   -5.200000e+002 5.000000e+001 0.000000e+000
      vertex   -4.680000e+002 5.000000e+001 0.000000e+000
    endloop
  endfacet
  facet normal 0.000000e+000 -1.000000e+000 0.000000e+000
    outer loop
      vertex   -4.680000e+002 5.000000e+001 3.000000e+000
      vertex   -4.680000e+002 5.000000e+001 0.000000e+000
      vertex   -4.160000e+002 5.000000e+001 3.000000e+000
    endloop
  endfacet
  facet normal 0.000000e+000 -9.983400e-001 -0.000000e+000
    outer loop
      vertex   -4.160000e+002 5.000000e+001 3.000000e+000
      vertex   -4.680000e+002 5.000000e+001 0.000000e+000
      vertex   -4.160000e+002 5.000000e+001 0.000000e+000
    endloop
  endfacet
  facet normal 0.000000e+000 -1.000000e+000 0.000000e+000
    outer loop
      vertex   -4.160000e+002 5.000000e+001 3.000000e+000
      vertex   -4.160000e+002 5.000000e+001 0.000000e+000
      vertex   -3.640000e+002 5.000000e+001 3.000000e+000
    endloop
  endfacet
  facet normal 0.000000e+000 -9.983400e-001 -0.000000e+000
    outer loop
      vertex   -3.640000e+002 5.000000e+001 3.000000e+000
      vertex   -4.160000e+002 5.000000e+001 0.000000e+000
      vertex   -3.640000e+002 5.000000e+001 0.000000e+000
    endloop
  endfacet
  facet normal 0.000000e+000 -1.000000e+000 0.000000e+000
    outer loop
      vertex   -3.640000e+002 5.000000e+001 3.000000e+000
      vertex   -3.640000e+002 5.000000e+001 0.000000e+000
      vertex   -3.120000e+002 5.000000e+001 3.000000e+000
    endloop
  endfacet
  facet normal 0.000000e+000 -9.983400e-001 -0.000000e+000
    outer loop
      vertex   -3.120000e+002 5.000000e+001 3.000000e+000
      vertex   -3.640000e+002 5.000000e+001 0.000000e+000
      vertex   -3.120000e+002 5.000000e+001 0.000000e+000
    endloop
  endfacet
  facet normal 0.000000e+000 -1.000000e+000 0.000000e+000
    outer loop
      vertex   -3.120000e+002 5.000000e+001 3.000000e+000
      vertex   -3.120000e+002 5.000000e+001 0.000000e+000
      vertex   -2.600000e+002 5.000000e+001 3.000000e+000
    endloop
  endfacet
  facet normal 0.000000e+000 -9.983400e-001 -0.000000e+000
    outer loop
      vertex   -2.600000e+002 5.000000e+001 3.000000e+000
      vertex   -3.120000e+002 5.000000e+001 0.000000e+000
      vertex   -2.600000e+002 5.000000e+001 0.000000e+000
    endloop
  endfacet
  facet normal 0.000000e+000 -1.000000e+000 0.000000e+000
    outer loop
      vertex   -2.600000e+002 5.000000e+001 3.000000e+000
      vertex   -2.600000e+002 5.000000e+001 0.000000e+000
      vertex   -2.080000e+002 5.000000e+001 3.000000e+000
    endloop
  endfacet
  facet normal 0.000000e+000 -9.983400e-001 -0.000000e+000
    outer loop
      vertex   -2.080000e+002 5.000000e+001 3.000000e+000
      vertex   -2.600000e+002 5.000000e+001 0.000000e+000
      vertex   -2.080000e+002 5.000000e+001 0.000000e+000
    endloop
  endfacet
  facet normal 0.000000e+000 -1.000000e+000 0.000000e+000
    outer loop
      vertex   -2.080000e+002 5.000000e+001 3.000000e+000
      vertex   -2.080000e+002 5.000000e+001 0.000000e+000
      vertex   -1.560000e+002 5.000000e+001 3.000000e+000
    endloop
  endfacet
  facet normal 0.000000e+000 -9.983400e-001 -0.000000e+000
    outer loop
      vertex   -1.560000e+002 5.000000e+001 3.000000e+000
      vertex   -2.080000e+002 5.000000e+001 0.000000e+000
      vertex   -1.560000e+002 5.000000e+001 0.000000e+000
    endloop
  endfacet
  facet normal 0.000000e+000 -1.000000e+000 0.000000e+000
    outer loop
      vertex   -1.560000e+002 5.000000e+001 3.000000e+000
      vertex   -1.560000e+002 5.000000e+001 0.000000e+000
      vertex   -1.040000e+002 5.000000e+001 3.000000e+000
    endloop
  endfacet
  facet normal 0.000000e+000 -9.983400e-001 -0.000000e+000
    outer loop
      vertex   -1.040000e+002 5.000000e+001 3.000000e+000
      vertex   -1.560000e+002 5.000000e+001 0.000000e+000
      vertex   -1.040000e+002 5.000000e+001 0.000000e+000
    endloop
  endfacet
  facet normal 0.000000e+000 -1.000000e+000 0.000000e+000
    outer loop
      vertex   -1.040000e+002 5.000000e+001 3.000000e+000
      vertex   -1.040000e+002 5.000000e+001 0.000000e+000
      vertex   -5.200000e+001 5.000000e+001 3.000000e+000
    endloop
  endfacet
  facet normal 0.000000e+000 -9.983400e-001 -0.000000e+000
    outer loop
      vertex   -5.200000e+001 5.000000e+001 3.000000e+000
      vertex   -1.040000e+002 5.000000e+001 0.000000e+000
      vertex   -5.200000e+001 5.000000e+001 0.000000e+000
    endloop
  endfacet
  facet normal 0.000000e+000 -1.000000e+000 0.000000e+000
    outer loop
      vertex   -5.200000e+001 5.000000e+001 3.000000e+000
      vertex   -5.200000e+001 5.000000e+001 0.000000e+000
      vertex   0.000000e+000 5.000000e+001 3.000000e+000
    endloop
  endfacet
  facet normal 0.000000e+000 -9.983400e-001 -0.000000e+000
    outer loop
      vertex   0.000000e+000 5.000000e+001 3.000000e+000
      vertex   -5.200000e+001 5.000000e+001 0.000000e+000
      vertex   0.000000e+000 5.000000e+001 0.000000e+000
    endloop
  endfacet
  facet normal -1.000000e+000 -0.000000e+000 -0.000000e+000
    outer loop
      vertex   -5.200000e+002 5.700000e+001 3.000000e+000
      vertex   -5.200000e+002 5.700000e+001 0.000000e+000
      vertex   -5.200000e+002 5.000000e+001 3.000000e+000
    endloop
  endfacet
  facet normal -9.191450e-001 0.000000e+000 0.000000e+000
    outer loop
      vertex   -5.200000e+002 5.000000e+001 3.000000e+000
      vertex   -5.200000e+002 5.700000e+001 0.000000e+000
      vertex   -5.200000e+002 5.000000e+001 0.000000e+000
    endloop
  endfacet
  facet normal 0.000000e+000 1.000000e+000 0.000000e+000
    outer loop
      vertex   0.000000e+000 5.700000e+001 3.000000e+000
      vertex   0.000000e+000 5.700000e+001 0.000000e+000
      vertex   -5.200000e+001 5.700000e+001 3.000000e+000
    endloop
  endfacet
  facet normal 0.000000e+000 9.983400e-001 0.000000e+000
    outer loop
      vertex   -5.200000e+001 5.700000e+001 3.000000e+000
      vertex   0.000000e+000 5.700000e+001 0.000000e+000
      vertex   -5.200000e+001 5.700000e+001 0.000000e+000
    endloop
  endfacet
  facet normal 0.000000e+000 1.000000e+000 0.000000e+000
    outer loop
      vertex   -5.200000e+001 5.700000e+001 3.000000e+000
      vertex   -5.200000e+001 5.700000e+001 0.000000e+000
      vertex   -1.040000e+002 5.700000e+001 3.000000e+000
    endloop
  endfacet
  facet normal 0.000000e+000 9.983400e-001 0.000000e+000
    outer loop
      vertex   -1.040000e+002 5.700000e+001 3.000000e+000
      vertex   -5.200000e+001 5.700000e+001 0.000000e+000
      vertex   -1.040000e+002 5.700000e+001 0.000000e+000
    endloop
  endfacet
  facet normal 0.000000e+000 1.000000e+000 0.000000e+000
    outer loop
      vertex   -1.040000e+002 5.700000e+001 3.000000e+000
      vertex   -1.040000e+002 5.700000e+001 0.000000e+000
      vertex   -1.560000e+002 5.700000e+001 3.000000e+000
    endloop
  endfacet
  facet normal 0.000000e+000 9.983400e-001 0.000000e+000
    outer loop
      vertex   -1.560000e+002 5.700000e+001 3.000000e+000
      vertex   -1.040000e+002 5.700000e+001 0.000000e+000
      vertex   -1.560000e+002 5.700000e+001 0.000000e+000
    endloop
  endfacet
  facet normal 0.000000e+000 1.000000e+000 0.000000e+000
    outer loop
      vertex   -1.560000e+002 5.700000e+001 3.000000e+000
      vertex   -1.560000e+002 5.700000e+001 0.000000e+000
      vertex   -2.080000e+002 5.700000e+001 3.000000e+000
    endloop
  endfacet
  facet normal 0.000000e+000 9.983400e-001 0.000000e+000
    outer loop
      vertex   -2.080000e+002 5.700000e+001 3.000000e+000
      vertex   -1.560000e+002 5.700000e+001 0.000000e+000
      vertex   -2.080000e+002 5.700000e+001 0.000000e+000
    endloop
  endfacet
  facet normal 0.000000e+000 1.000000e+000 0.000000e+000
    outer loop
      vertex   -2.080000e+002 5.700000e+001 3.000000e+000
      vertex   -2.080000e+002 5.700000e+001 0.000000e+000
      vertex   -2.600000e+002 5.700000e+001 3.000000e+000
    endloop
  endfacet
  facet normal 0.000000e+000 9.983400e-001 0.000000e+000
    outer loop
      vertex   -2.600000e+002 5.700000e+001 3.000000e+000
      vertex   -2.080000e+002 5.700000e+001 0.000000e+000
      vertex   -2.600000e+002 5.700000e+001 0.000000e+000
    endloop
  endfacet
  facet normal 0.000000e+000 1.000000e+000 0.000000e+000
    outer loop
      vertex   -2.600000e+002 5.700000e+001 3.000000e+000
      vertex   -2.600000e+002 5.700000e+001 0.000000e+000
      vertex   -3.120000e+002 5.700000e+001 3.000000e+000
    endloop
  endfacet
  facet normal 0.000000e+000 9.983400e-001 0.000000e+000
    outer loop
      vertex   -3.120000e+002 5.700000e+001 3.000000e+000
      vertex   -2.600000e+002 5.700000e+001 0.000000e+000
      vertex   -3.120000e+002 5.700000e+001 0.000000e+000
    endloop
  endfacet
  facet normal 0.000000e+000 1.000000e+000 0.000000e+000
    outer loop
      vertex   -3.120000e+002 5.700000e+001 3.000000e+000
      vertex   -3.120000e+002 5.700000e+001 0.000000e+000
      vertex   -3.640000e+002 5.700000e+001 3.000000e+000
    endloop
  endfacet
  facet normal 0.000000e+000 9.983400e-001 0.000000e+000
    outer loop
      vertex   -3.640000e+002 5.700000e+001 3.000000e+000
      vertex   -3.120000e+002 5.700000e+001 0.000000e+000
      vertex   -3.640000e+002 5.700000e+001 0.000000e+000
    endloop
  endfacet
  facet normal 0.000000e+000 1.000000e+000 0.000000e+000
    outer loop
      vertex   -3.640000e+002 5.700000e+001 3.000000e+000
      vertex   -3.640000e+002 5.700000e+001 0.000000e+000
      vertex   -4.160000e+002 5.700000e+001 3.000000e+000
    endloop
  endfacet
  facet normal 0.000000e+000 9.983400e-001 0.000000e+000
    outer loop
      vertex   -4.160000e+002 5.700000e+001 3.000000e+000
      vertex   -3.640000e+002 5.700000e+001 0.000000e+000
      vertex   -4.160000e+002 5.700000e+001 0.000000e+000
    endloop
  endfacet
  facet normal 0.000000e+000 1.000000e+000 0.000000e+000
    outer loop
      vertex   -4.160000e+002 5.700000e+001 3.000000e+000
      vertex   -4.160000e+002 5.700000e+001 0.000000e+000
      vertex   -4.680000e+002 5.700000e+001 3.000000e+000
    endloop
  endfacet
  facet normal 0.000000e+000 9.983400e-001 0.000000e+000
    outer loop
      vertex   -4.680000e+002 5.700000e+001 3.000000e+000
      vertex   -4.160000e+002 5.700000e+001 0.000000e+000
      vertex   -4.680000e+002 5.700000e+001 0.000000e+000
    endloop
  endfacet
  facet normal 0.000000e+000 1.000000e+000 0.000000e+000
    outer loop
      vertex   -4.680000e+002 5.700000e+001 3.000000e+000
      vertex   -4.680000e+002 5.700000e+001 0.000000e+000
      vertex   -5.200000e+002 5.700000e+001 3.000000e+000
    endloop
  endfacet
  facet normal 0.000000e+000 9.983400e-001 0.000000e+000
    outer loop
      vertex   -5.200000e+002 5.700000e+001 3.000000e+000
      vertex   -4.680000e+002 5.700000e+001 0.000000e+000
      vertex   -5.200000e+002 5.700000e+001 0.000000e+000
    endloop
  endfacet
  facet normal 1.000000e+000 -0.000000e+000 0.000000e+000
    outer loop
      vertex   0.000000e+000 5.000000e+001 3.000000e+000
      vertex   0.000000e+000 5.000000e+001 0.000000e+000
      vertex   0.000000e+000 5.700000e+001 3.000000e+000
    endloop
  endfacet
  facet normal 9.191450e-001 0.000000e+000 0.000000e+000
    outer loop
      vertex   0.000000e+000 5.700000e+001 3.000000e+000
      vertex   0.000000e+000 5.000000e+001 0.000000e+000
      vertex   0.000000e+000 5.700000e+001 0.000000e+000
    endloop
  endfacet
endsolid
solid ascii
  facet normal 0.000000e+000 0.000000e+000 1.000000e+000
    outer loop
      vertex   0.000000e+000 8.000000e+000 3.000000e+000
      vertex   -5.200000e+001 8.000000e+000 3.000000e+000
      vertex   0.000000e+000 1.000000e+000 3.000000e+000
    endloop
  endfacet
  facet normal 0.000000e+000 0.000000e+000 1.334120e-001
    outer loop
      vertex   0.000000e+000 1.000000e+000 3.000000e+000
      vertex   -5.200000e+001 8.000000e+000 3.000000e+000
      vertex   -5.200000e+001 1.000000e+000 3.000000e+000
    endloop
  endfacet
  facet normal 0.000000e+000 -0.000000e+000 9.910607e-001
    outer loop
      vertex   -5.200000e+001 1.000000e+000 3.000000e+000
      vertex   -5.200000e+001 8.000000e+000 3.000000e+000
      vertex   -1.040000e+002 8.000000e+000 3.000000e+000
    endloop
  endfacet
  facet normal 0.000000e+000 0.000000e+000 1.334120e-001
    outer loop
      vertex   -5.200000e+001 1.000000e+000 3.000000e+000
      vertex   -1.040000e+002 8.000000e+000 3.000000e+000
      vertex   -1.040000e+002 1.000000e+000 3.000000e+000
    endloop
  endfacet
  facet normal 0.000000e+000 -0.000000e+000 9.910607e-001
    outer loop
      vertex   -1.040000e+002 1.000000e+000 3.000000e+000
      vertex   -1.040000e+002 8.000000e+000 3.000000e+000
      vertex   -1.560000e+002 8.000000e+000 3.000000e+000
    endloop
  endfacet
  facet normal 0.000000e+000 0.000000e+000 1.334120e-001
    outer loop
      vertex   -1.040000e+002 1.000000e+000 3.000000e+000
      vertex   -1.560000e+002 8.000000e+000 3.000000e+000
      vertex   -1.560000e+002 1.000000e+000 3.000000e+000
    endloop
  endfacet
  facet normal 0.000000e+000 -0.000000e+000 9.910607e-001
    outer loop
      vertex   -1.560000e+002 1.000000e+000 3.000000e+000
      vertex   -1.560000e+002 8.000000e+000 3.000000e+000
      vertex   -2.080000e+002 8.000000e+000 3.000000e+000
    endloop
  endfacet
  facet normal 0.000000e+000 0.000000e+000 1.334120e-001
    outer loop
      vertex   -1.560000e+002 1.000000e+000 3.000000e+000
      vertex   -2.080000e+002 8.000000e+000 3.000000e+000
      vertex   -2.080000e+002 1.000000e+000 3.000000e+000
    endloop
  endfacet
  facet normal 0.000000e+000 -0.000000e+000 9.910607e-001
    outer loop
      vertex   -2.080000e+002 1.000000e+000 3.000000e+000
      vertex   -2.080000e+002 8.000000e+000 3.000000e+000
      vertex   -2.600000e+002 8.000000e+000 3.000000e+000
    endloop
  endfacet
  facet normal 0.000000e+000 0.000000e+000 1.334120e-001
    outer loop
      vertex   -2.080000e+002 1.000000e+000 3.000000e+000
      vertex   -2.600000e+002 8.000000e+000 3.000000e+000
      vertex   -2.600000e+002 1.000000e+000 3.000000e+000
    endloop
  endfacet
  facet normal 0.000000e+000 -0.000000e+000 9.910607e-001
    outer loop
      vertex   -2.600000e+002 1.000000e+000 3.000000e+000
      vertex   -2.600000e+002 8.000000e+000 3.000000e+000
      vertex   -3.120000e+002 8.000000e+000 3.000000e+000
    endloop
  endfacet
  facet normal 0.000000e+000 0.000000e+000 1.334120e-001
    outer loop
      vertex   -2.600000e+002 1.000000e+000 3.000000e+000
      vertex   -3.120000e+002 8.000000e+000 3.000000e+000
      vertex   -3.120000e+002 1.000000e+000 3.000000e+000
    endloop
  endfacet
  facet normal 0.000000e+000 -0.000000e+000 9.910607e-001
    outer loop
      vertex   -3.120000e+002 1.000000e+000 3.000000e+000
      vertex   -3.120000e+002 8.000000e+000 3.000000e+000
      vertex   -3.640000e+002 8.000000e+000 3.000000e+000
    endloop
  endfacet
  facet normal 0.000000e+000 0.000000e+000 1.334120e-001
    outer loop
      vertex   -3.120000e+002 1.000000e+000 3.000000e+000
      vertex   -3.640000e+002 8.000000e+000 3.000000e+000
      vertex   -3.640000e+002 1.000000e+000 3.000000e+000
    endloop
  endfacet
  facet normal 0.000000e+000 -0.000000e+000 9.910607e-001
    outer loop
      vertex   -3.640000e+002 1.000000e+000 3.000000e+000
      vertex   -3.640000e+002 8.000000e+000 3.000000e+000
      vertex   -4.160000e+002 8.000000e+000 3.000000e+000
    endloop
  endfacet
  facet normal 0.000000e+000 0.000000e+000 1.334120e-001
    outer loop
      vertex   -3.640000e+002 1.000000e+000 3.000000e+000
      vertex   -4.160000e+002 8.000000e+000 3.000000e+000
      vertex   -4.160000e+002 1.000000e+000 3.000000e+000
    endloop
  endfacet
  facet normal 0.000000e+000 -0.000000e+000 9.910607e-001
    outer loop
      vertex   -4.160000e+002 1.000000e+000 3.000000e+000
      vertex   -4.160000e+002 8.000000e+000 3.000000e+000
      vertex   -4.680000e+002 8.000000e+000 3.000000e+000
    endloop
  endfacet
  facet normal 0.000000e+000 0.000000e+000 1.334120e-001
    outer loop
      vertex   -4.160000e+002 1.000000e+000 3.000000e+000
      vertex   -4.680000e+002 8.000000e+000 3.000000e+000
      vertex   -4.680000e+002 1.000000e+000 3.000000e+000
    endloop
  endfacet
  facet normal 0.000000e+000 -0.000000e+000 9.910607e-001
    outer loop
      vertex   -4.680000e+002 1.000000e+000 3.000000e+000
      vertex   -4.680000e+002 8.000000e+000 3.000000e+000
      vertex   -5.200000e+002 8.000000e+000 3.000000e+000
    endloop
  endfacet
  facet normal 0.000000e+000 0.000000e+000 1.334120e-001
    outer loop
      vertex   -4.680000e+002 1.000000e+000 3.000000e+000
      vertex   -5.200000e+002 8.000000e+000 3.000000e+000
      vertex   -5.200000e+002 1.000000e+000 3.000000e+000
    endloop
  endfacet
  facet normal 0.000000e+000 0.000000e+000 -1.000000e+000
    outer loop
      vertex   0.000000e+000 1.000000e+000 0.000000e+000
      vertex   -5.200000e+001 1.000000e+000 0.000000e+000
      vertex   0.000000e+000 8.000000e+000 0.000000e+000
    endloop
  endfacet
  facet normal -0.000000e+000 0.000000e+000 -1.334120e-001
    outer loop
      vertex   0.000000e+000 8.000000e+000 0.000000e+000
      vertex   -5.200000e+001 1.000000e+000 0.000000e+000
      vertex   -5.200000e+001 8.000000e+000 0.000000e+000
    endloop
  endfacet
  facet normal 0.000000e+000 -0.000000e+000 -9.910607e-001
    outer loop
      vertex   -5.200000e+001 8.000000e+000 0.000000e+000
      vertex   -5.200000e+001 1.000000e+000 0.000000e+000
      vertex   -1.040000e+002 1.000000e+000 0.000000e+000
    endloop
  endfacet
  facet normal -0.000000e+000 0.000000e+000 -1.334120e-001
    outer loop
      vertex   -5.200000e+001 8.000000e+000 0.000000e+000
      vertex   -1.040000e+002 1.000000e+000 0.000000e+000
      vertex   -1.040000e+002 8.000000e+000 0.000000e+000
    endloop
  endfacet
  facet normal 0.000000e+000 -0.000000e+000 -9.910607e-001
    outer loop
      vertex   -1.040000e+002 8.000000e+000 0.000000e+000
      vertex   -1.040000e+002 1.000000e+000 0.000000e+000
      vertex   -1.560000e+002 1.000000e+000 0.000000e+000
    endloop
  endfacet
  facet normal -0.000000e+000 0.000000e+000 -1.334120e-001
    outer loop
      vertex   -1.040000e+002 8.000000e+000 0.000000e+000
      vertex   -1.560000e+002 1.000000e+000 0.000000e+000
      vertex   -1.560000e+002 8.000000e+000 0.000000e+000
    endloop
  endfacet
  facet normal 0.000000e+000 -0.000000e+000 -9.910607e-001
    outer loop
      vertex   -1.560000e+002 8.000000e+000 0.000000e+000
      vertex   -1.560000e+002 1.000000e+000 0.000000e+000
      vertex   -2.080000e+002 1.000000e+000 0.000000e+000
    endloop
  endfacet
  facet normal -0.000000e+000 0.000000e+000 -1.334120e-001
    outer loop
      vertex   -1.560000e+002 8.000000e+000 0.000000e+000
      vertex   -2.080000e+002 1.000000e+000 0.000000e+000
      vertex   -2.080000e+002 8.000000e+000 0.000000e+000
    endloop
  endfacet
  facet normal 0.000000e+000 -0.000000e+000 -9.910607e-001
    outer loop
      vertex   -2.080000e+002 8.000000e+000 0.000000e+000
      vertex   -2.080000e+002 1.000000e+000 0.000000e+000
      vertex   -2.600000e+002 1.000000e+000 0.000000e+000
    endloop
  endfacet
  facet normal -0.000000e+000 0.000000e+000 -1.334120e-001
    outer loop
      vertex   -2.080000e+002 8.000000e+000 0.000000e+000
      vertex   -2.600000e+002 1.000000e+000 0.000000e+000
      vertex   -2.600000e+002 8.000000e+000 0.000000e+000
    endloop
  endfacet
  facet normal 0.000000e+000 -0.000000e+000 -9.910607e-001
    outer loop
      vertex   -2.600000e+002 8.000000e+000 0.000000e+000
      vertex   -2.600000e+002 1.000000e+000 0.000000e+000
      vertex   -3.120000e+002 1.000000e+000 0.000000e+000
    endloop
  endfacet
  facet normal -0.000000e+000 0.000000e+000 -1.334120e-001
    outer loop
      vertex   -2.600000e+002 8.000000e+000 0.000000e+000
      vertex   -3.120000e+002 1.000000e+000 0.000000e+000
      vertex   -3.120000e+002 8.000000e+000 0.000000e+000
    endloop
  endfacet
  facet normal 0.000000e+000 -0.000000e+000 -9.910607e-001
    outer loop
      vertex   -3.120000e+002 8.000000e+000 0.000000e+000
      vertex   -3.120000e+002 1.000000e+000 0.000000e+000
      vertex   -3.640000e+002 1.000000e+000 0.000000e+000
    endloop
  endfacet
  facet normal -0.000000e+000 0.000000e+000 -1.334120e-001
    outer loop
      vertex   -3.120000e+002 8.000000e+000 0.000000e+000
      vertex   -3.640000e+002 1.000000e+000 0.000000e+000
      vertex   -3.640000e+002 8.000000e+000 0.000000e+000
    endloop
  endfacet
  facet normal 0.000000e+000 -0.000000e+000 -9.910607e-001
    outer loop
      vertex   -3.640000e+002 8.000000e+000 0.000000e+000
      vertex   -3.640000e+002 1.000000e+000 0.000000e+000
      vertex   -4.160000e+002 1.000000e+000 0.000000e+000
    endloop
  endfacet
  facet normal -0.000000e+000 0.000000e+000 -1.334120e-001
    outer loop
      vertex   -3.640000e+002 8.000000e+000 0.000000e+000
      vertex   -4.160000e+002 1.000000e+000 0.000000e+000
      vertex   -4.160000e+002 8.000000e+000 0.000000e+000
    endloop
  endfacet
  facet normal 0.000000e+000 -0.000000e+000 -9.910607e-001
    outer loop
      vertex   -4.160000e+002 8.000000e+000 0.000000e+000
      vertex   -4.160000e+002 1.000000e+000 0.000000e+000
      vertex   -4.680000e+002 1.000000e+000 0.000000e+000
    endloop
  endfacet
  facet normal -0.000000e+000 0.000000e+000 -1.334120e-001
    outer loop
      vertex   -4.160000e+002 8.000000e+000 0.000000e+000
      vertex   -4.680000e+002 1.000000e+000 0.000000e+000
      vertex   -4.680000e+002 8.000000e+000 0.000000e+000
    endloop
  endfacet
  facet normal 0.000000e+000 -0.000000e+000 -9.910607e-001
    outer loop
      vertex   -4.680000e+002 8.000000e+000 0.000000e+000
      vertex   -4.680000e+002 1.000000e+000 0.000000e+000
      vertex   -5.200000e+002 1.000000e+000 0.000000e+000
    endloop
  endfacet
  facet normal -0.000000e+000 0.000000e+000 -1.334120e-001
    outer loop
      vertex   -4.680000e+002 8.000000e+000 0.000000e+000
      vertex   -5.200000e+002 1.000000e+000 0.000000e+000
      vertex   -5.200000e+002 8.000000e+000 0.000000e+000
    endloop
  endfacet
  facet normal 0.000000e+000 -1.000000e+000 0.000000e+000
    outer loop
      vertex   -5.200000e+002 1.000000e+000 3.000000e+000
      vertex   -5.200000e+002 1.000000e+000 0.000000e+000
      vertex   -4.680000e+002 1.000000e+000 3.000000e+000
    endloop
  endfacet
  facet normal 0.000000e+000 -9.983400e-001 -0.000000e+000
    outer loop
      vertex   -4.680000e+002 1.000000e+000 3.000000e+000
      vertex   -5.200000e+002 1.000000e+000 0.000000e+000
      vertex   -4.680000e+002 1.000000e+000 0.000000e+000
    endloop
  endfacet
  facet normal 0.000000e+000 -1.000000e+000 0.000000e+000
    outer loop
      vertex   -4.680000e+002 1.000000e+000 3.000000e+000
      vertex   -4.680000e+002 1.000000e+000 0.000000e+000
      vertex   -4.160000e+002 1.000000e+000 3.000000e+000
    endloop
  endfacet
  facet normal 0.000000e+000 -9.983400e-001 -0.000000e+000
    outer loop
      vertex   -4.160000e+002 1.000000e+000 3.000000e+000
      vertex   -4.680000e+002 1.000000e+000 0.000000e+000
      vertex   -4.160000e+002 1.000000e+000 0.000000e+000
    endloop
  endfacet
  facet normal 0.000000e+000 -1.000000e+000 0.000000e+000
    outer loop
      vertex   -4.160000e+002 1.000000e+000 3.000000e+000
      vertex   -4.160000e+002 1.000000e+000 0.000000e+000
      vertex   -3.640000e+002 1.000000e+000 3.000000e+000
    endloop
  endfacet
  facet normal 0.000000e+000 -9.983400e-001 -0.000000e+000
    outer loop
      vertex   -3.640000e+002 1.000000e+000 3.000000e+000
      vertex   -4.160000e+002 1.000000e+000 0.000000e+000
      vertex   -3.640000e+002 1.000000e+000 0.000000e+000
    endloop
  endfacet
  facet normal 0.000000e+000 -1.000000e+000 0.000000e+000
    outer loop
      vertex   -3.640000e+002 1.000000e+000 3.000000e+000
      vertex   -3.640000e+002 1.000000e+000 0.000000e+000
      vertex   -3.120000e+002 1.000000e+000 3.000000e+000
    endloop
  endfacet
  facet normal 0.000000e+000 -9.983400e-001 -0.000000e+000
    outer loop
      vertex   -3.120000e+002 1.000000e+000 3.000000e+000
      vertex   -3.640000e+002 1.000000e+000 0.000000e+000
      vertex   -3.120000e+002 1.000000e+000 0.000000e+000
    endloop
  endfacet
  facet normal 0.000000e+000 -1.000000e+000 0.000000e+000
    outer loop
      vertex   -3.120000e+002 1.000000e+000 3.000000e+000
      vertex   -3.120000e+002 1.000000e+000 0.000000e+000
      vertex   -2.600000e+002 1.000000e+000 3.000000e+000
    endloop
  endfacet
  facet normal 0.000000e+000 -9.983400e-001 -0.000000e+000
    outer loop
      vertex   -2.600000e+002 1.000000e+000 3.000000e+000
      vertex   -3.120000e+002 1.000000e+000 0.000000e+000
      vertex   -2.600000e+002 1.000000e+000 0.000000e+000
    endloop
  endfacet
  facet normal 0.000000e+000 -1.000000e+000 0.000000e+000
    outer loop
      vertex   -2.600000e+002 1.000000e+000 3.000000e+000
      vertex   -2.600000e+002 1.000000e+000 0.000000e+000
      vertex   -2.080000e+002 1.000000e+000 3.000000e+000
    endloop
  endfacet
  facet normal 0.000000e+000 -9.983400e-001 -0.000000e+000
    outer loop
      vertex   -2.080000e+002 1.000000e+000 3.000000e+000
      vertex   -2.600000e+002 1.000000e+000 0.000000e+000
      vertex   -2.080000e+002 1.000000e+000 0.000000e+000
    endloop
  endfacet
  facet normal 0.000000e+000 -1.000000e+000 0.000000e+000
    outer loop
      vertex   -2.080000e+002 1.000000e+000 3.000000e+000
      vertex   -2.080000e+002 1.000000e+000 0.000000e+000
      vertex   -1.560000e+002 1.000000e+000 3.000000e+000
    endloop
  endfacet
  facet normal 0.000000e+000 -9.983400e-001 -0.000000e+000
    outer loop
      vertex   -1.560000e+002 1.000000e+000 3.000000e+000
      vertex   -2.080000e+002 1.000000e+000 0.000000e+000
      vertex   -1.560000e+002 1.000000e+000 0.000000e+000
    endloop
  endfacet
  facet normal 0.000000e+000 -1.000000e+000 0.000000e+000
    outer loop
      vertex   -1.560000e+002 1.000000e+000 3.000000e+000
      vertex   -1.560000e+002 1.000000e+000 0.000000e+000
      vertex   -1.040000e+002 1.000000e+000 3.000000e+000
    endloop
  endfacet
  facet normal 0.000000e+000 -9.983400e-001 -0.000000e+000
    outer loop
      vertex   -1.040000e+002 1.000000e+000 3.000000e+000
      vertex   -1.560000e+002 1.000000e+000 0.000000e+000
      vertex   -1.040000e+002 1.000000e+000 0.000000e+000
    endloop
  endfacet
  facet normal 0.000000e+000 -1.000000e+000 0.000000e+000
    outer loop
      vertex   -1.040000e+002 1.000000e+000 3.000000e+000
      vertex   -1.040000e+002 1.000000e+000 0.000000e+000
      vertex   -5.200000e+001 1.000000e+000 3.000000e+000
    endloop
  endfacet
  facet normal 0.000000e+000 -9.983400e-001 -0.000000e+000
    outer loop
      vertex   -5.200000e+001 1.000000e+000 3.000000e+000
      vertex   -1.040000e+002 1.000000e+000 0.000000e+000
      vertex   -5.200000e+001 1.000000e+000 0.000000e+000
    endloop
  endfacet
  facet normal 0.000000e+000 -1.000000e+000 0.000000e+000
    outer loop
      vertex   -5.200000e+001 1.000000e+000 3.000000e+000
      vertex   -5.200000e+001 1.000000e+000 0.000000e+000
      vertex   0.000000e+000 1.000000e+000 3.000000e+000
    endloop
  endfacet
  facet normal 0.000000e+000 -9.983400e-001 -0.000000e+000
    outer loop
      vertex   0.000000e+000 1.000000e+000 3.000000e+000
      vertex   -5.200000e+001 1.000000e+000 0.000000e+000
      vertex   0.000000e+000 1.000000e+000 0.000000e+000
    endloop
  endfacet
  facet normal -1.000000e+000 -0.000000e+000 -0.000000e+000
    outer loop
      vertex   -5.200000e+002 8.000000e+000 3.000000e+000
      vertex   -5.200000e+002 8.000000e+000 0.000000e+000
      vertex   -5.200000e+002 1.000000e+000 3.000000e+000
    endloop
  endfacet
  facet normal -9.191450e-001 0.000000e+000 0.000000e+000
    outer loop
      vertex   -5.200000e+002 1.000000e+000 3.000000e+000
      vertex   -5.200000e+002 8.000000e+000 0.000000e+000
      vertex   -5.200000e+002 1.000000e+000 0.000000e+000
    endloop
  endfacet
  facet normal 0.000000e+000 1.000000e+000 0.000000e+000
    outer loop
      vertex   0.000000e+000 8.000000e+000 3.000000e+000
      vertex   0.000000e+000 8.000000e+000 0.000000e+000
      vertex   -5.200000e+001 8.000000e+000 3.000000e+000
    endloop
  endfacet
  facet normal 0.000000e+000 9.983400e-001 0.000000e+000
    outer loop
      vertex   -5.200000e+001 8.000000e+000 3.000000e+000
      vertex   0.000000e+000 8.000000e+000 0.000000e+000
      vertex   -5.200000e+001 8.000000e+000 0.000000e+000
    endloop
  endfacet
  facet normal 0.000000e+000 1.000000e+000 0.000000e+000
    outer loop
      vertex   -5.200000e+001 8.000000e+000 3.000000e+000
      vertex   -5.200000e+001 8.000000e+000 0.000000e+000
      vertex   -1.040000e+002 8.000000e+000 3.000000e+000
    endloop
  endfacet
  facet normal 0.000000e+000 9.983400e-001 0.000000e+000
    outer loop
      vertex   -1.040000e+002 8.000000e+000 3.000000e+000
      vertex   -5.200000e+001 8.000000e+000 0.000000e+000
      vertex   -1.040000e+002 8.000000e+000 0.000000e+000
    endloop
  endfacet
  facet normal 0.000000e+000 1.000000e+000 0.000000e+000
    outer loop
      vertex   -1.040000e+002 8.000000e+000 3.000000e+000
      vertex   -1.040000e+002 8.000000e+000 0.000000e+000
      vertex   -1.560000e+002 8.000000e+000 3.000000e+000
    endloop
  endfacet
  facet normal 0.000000e+000 9.983400e-001 0.000000e+000
    outer loop
      vertex   -1.560000e+002 8.000000e+000 3.000000e+000
      vertex   -1.040000e+002 8.000000e+000 0.000000e+000
      vertex   -1.560000e+002 8.000000e+000 0.000000e+000
    endloop
  endfacet
  facet normal 0.000000e+000 1.000000e+000 0.000000e+000
    outer loop
      vertex   -1.560000e+002 8.000000e+000 3.000000e+000
      vertex   -1.560000e+002 8.000000e+000 0.000000e+000
      vertex   -2.080000e+002 8.000000e+000 3.000000e+000
    endloop
  endfacet
  facet normal 0.000000e+000 9.983400e-001 0.000000e+000
    outer loop
      vertex   -2.080000e+002 8.000000e+000 3.000000e+000
      vertex   -1.560000e+002 8.000000e+000 0.000000e+000
      vertex   -2.080000e+002 8.000000e+000 0.000000e+000
    endloop
  endfacet
  facet normal 0.000000e+000 1.000000e+000 0.000000e+000
    outer loop
      vertex   -2.080000e+002 8.000000e+000 3.000000e+000
      vertex   -2.080000e+002 8.000000e+000 0.000000e+000
      vertex   -2.600000e+002 8.000000e+000 3.000000e+000
    endloop
  endfacet
  facet normal 0.000000e+000 9.983400e-001 0.000000e+000
    outer loop
      vertex   -2.600000e+002 8.000000e+000 3.000000e+000
      vertex   -2.080000e+002 8.000000e+000 0.000000e+000
      vertex   -2.600000e+002 8.000000e+000 0.000000e+000
    endloop
  endfacet
  facet normal 0.000000e+000 1.000000e+000 0.000000e+000
    outer loop
      vertex   -2.600000e+002 8.000000e+000 3.000000e+000
      vertex   -2.600000e+002 8.000000e+000 0.000000e+000
      vertex   -3.120000e+002 8.000000e+000 3.000000e+000
    endloop
  endfacet
  facet normal 0.000000e+000 9.983400e-001 0.000000e+000
    outer loop
      vertex   -3.120000e+002 8.000000e+000 3.000000e+000
      vertex   -2.600000e+002 8.000000e+000 0.000000e+000
      vertex   -3.120000e+002 8.000000e+000 0.000000e+000
    endloop
  endfacet
  facet normal 0.000000e+000 1.000000e+000 0.000000e+000
    outer loop
      vertex   -3.120000e+002 8.000000e+000 3.000000e+000
      vertex   -3.120000e+002 8.000000e+000 0.000000e+000
      vertex   -3.640000e+002 8.000000e+000 3.000000e+000
    endloop
  endfacet
  facet normal 0.000000e+000 9.983400e-001 0.000000e+000
    outer loop
      vertex   -3.640000e+002 8.000000e+000 3.000000e+000
      vertex   -3.120000e+002 8.000000e+000 0.000000e+000
      vertex   -3.640000e+002 8.000000e+000 0.000000e+000
    endloop
  endfacet
  facet normal 0.000000e+000 1.000000e+000 0.000000e+000
    outer loop
      vertex   -3.640000e+002 8.000000e+000 3.000000e+000
      vertex   -3.640000e+002 8.000000e+000 0.000000e+000
      vertex   -4.160000e+002 8.000000e+000 3.000000e+000
    endloop
  endfacet
  facet normal 0.000000e+000 9.983400e-001 0.000000e+000
    outer loop
      vertex   -4.160000e+002 8.000000e+000 3.000000e+000
      vertex   -3.640000e+002 8.000000e+000 0.000000e+000
      vertex   -4.160000e+002 8.000000e+000 0.000000e+000
    endloop
  endfacet
  facet normal 0.000000e+000 1.000000e+000 0.000000e+000
    outer loop
      vertex   -4.160000e+002 8.000000e+000 3.000000e+000
      vertex   -4.160000e+002 8.000000e+000 0.000000e+000
      vertex   -4.680000e+002 8.000000e+000 3.000000e+000
    endloop
  endfacet
  facet normal 0.000000e+000 9.983400e-001 0.000000e+000
    outer loop
      vertex   -4.680000e+002 8.000000e+000 3.000000e+000
      vertex   -4.160000e+002 8.000000e+000 0.000000e+000
      vertex   -4.680000e+002 8.000000e+000 0.000000e+000
    endloop
  endfacet
  facet normal 0.000000e+000 1.000000e+000 0.000000e+000
    outer loop
      vertex   -4.680000e+002 8.000000e+000 3.000000e+000
      vertex   -4.680000e+002 8.000000e+000 0.000000e+000
      vertex   -5.200000e+002 8.000000e+000 3.000000e+000
    endloop
  endfacet
  facet normal 0.000000e+000 9.983400e-001 0.000000e+000
    outer loop
      vertex   -5.200000e+002 8.000000e+000 3.000000e+000
      vertex   -4.680000e+002 8.000000e+000 0.000000e+000
      vertex   -5.200000e+002 8.000000e+000 0.000000e+000
    endloop
  endfacet
  facet normal 1.000000e+000 -0.000000e+000 0.000000e+000
    outer loop
      vertex   0.000000e+000 1.000000e+000 3.000000e+000
      vertex   0.000000e+000 1.000000e+000 0.000000e+000
      vertex   0.000000e+000 8.000000e+000 3.000000e+000
    endloop
  endfacet
  facet normal 9.191450e-001 0.000000e+000 0.000000e+000
    outer loop
      vertex   0.000000e+000 8.000000e+000 3.000000e+000
      vertex   0.000000e+000 1.000000e+000 0.000000e+000
      vertex   0.000000e+000 8.000000e+000 0.000000e+000
    endloop
  endfacet
endsolid
