solid ascii
  facet normal 0.000000e+000 0.000000e+000 1.000000e+000
    outer loop
      vertex   -2.500000e+001 4.500000e+001 6.300000e+001
      vertex   -4.500000e+001 4.500000e+001 6.300000e+001
      vertex   -2.500000e+001 2.500000e+001 6.300000e+001
    endloop
  endfacet
  facet normal 0.000000e+000 0.000000e+000 7.071068e-001
    outer loop
      vertex   -2.500000e+001 2.500000e+001 6.300000e+001
      vertex   -4.500000e+001 4.500000e+001 6.300000e+001
      vertex   -4.500000e+001 2.500000e+001 6.300000e+001
    endloop
  endfacet
  facet normal 0.000000e+000 0.000000e+000 -1.000000e+000
    outer loop
      vertex   -2.500000e+001 2.500000e+001 0.000000e+000
      vertex   -4.500000e+001 2.500000e+001 0.000000e+000
      vertex   -2.500000e+001 4.500000e+001 0.000000e+000
    endloop
  endfacet
  facet normal -0.000000e+000 0.000000e+000 -7.071068e-001
    outer loop
      vertex   -2.500000e+001 4.500000e+001 0.000000e+000
      vertex   -4.500000e+001 2.500000e+001 0.000000e+000
      vertex   -4.500000e+001 4.500000e+001 0.000000e+000
    endloop
  endfacet
  facet normal 0.000000e+000 -1.000000e+000 0.000000e+000
    outer loop
      vertex   -4.500000e+001 2.500000e+001 6.300000e+001
      vertex   -4.500000e+001 2.500000e+001 3.150000e+001
      vertex   -2.500000e+001 2.500000e+001 6.300000e+001
    endloop
  endfacet
  facet normal 0.000000e+000 -5.360081e-001 -0.000000e+000
    outer loop
      vertex   -2.500000e+001 2.500000e+001 6.300000e+001
      vertex   -4.500000e+001 2.500000e+001 3.150000e+001
      vertex   -2.500000e+001 2.500000e+001 3.150000e+001
    endloop
  endfacet
  facet normal -0.000000e+000 -8.442128e-001 0.000000e+000
    outer loop
      vertex   -2.500000e+001 2.500000e+001 3.150000e+001
      vertex   -4.500000e+001 2.500000e+001 3.150000e+001
      vertex   -4.500000e+001 2.500000e+001 0.000000e+000
    endloop
  endfacet
  facet normal 0.000000e+000 -5.360081e-001 -0.000000e+000
    outer loop
      vertex   -2.500000e+001 2.500000e+001 3.150000e+001
      vertex   -4.500000e+001 2.500000e+001 0.000000e+000
      vertex   -2.500000e+001 2.500000e+001 0.000000e+000
    endloop
  endfacet
  facet normal -1.000000e+000 -0.000000e+000 -0.000000e+000
    outer loop
      vertex   -4.500000e+001 4.500000e+001 6.300000e+001
      vertex   -4.500000e+001 4.500000e+001 3.150000e+001
      vertex   -4.500000e+001 2.500000e+001 6.300000e+001
    endloop
  endfacet
  facet normal -5.360081e-001 0.000000e+000 0.000000e+000
    outer loop
      vertex   -4.500000e+001 2.500000e+001 6.300000e+001
      vertex   -4.500000e+001 4.500000e+001 3.150000e+001
      vertex   -4.500000e+001 2.500000e+001 3.150000e+001
    endloop
  endfacet
  facet normal -8.442128e-001 0.000000e+000 0.000000e+000
    outer loop
      vertex   -4.500000e+001 2.500000e+001 3.150000e+001
      vertex   -4.500000e+001 4.500000e+001 3.150000e+001
      vertex   -4.500000e+001 4.500000e+001 0.000000e+000
    endloop
  endfacet
  facet normal -5.360081e-001 0.000000e+000 0.000000e+000
    outer loop
      vertex   -4.500000e+001 2.500000e+001 3.150000e+001
      vertex   -4.500000e+001 4.500000e+001 0.000000e+000
      vertex   -4.500000e+001 2.500000e+001 0.000000e+000
    endloop
  endfacet
  facet normal 0.000000e+000 1.000000e+000 0.000000e+000
    outer loop
      vertex   -2.500000e+001 4.500000e+001 6.300000e+001
      vertex   -2.500000e+001 4.500000e+001 3.150000e+001
      vertex   -4.500000e+001 4.500000e+001 6.300000e+001
    endloop
  endfacet
  facet normal 0.000000e+000 5.360081e-001 0.000000e+000
    outer loop
      vertex   -4.500000e+001 4.500000e+001 6.300000e+001
      vertex   -2.500000e+001 4.500000e+001 3.150000e+001
      vertex   -4.500000e+001 4.500000e+001 3.150000e+001
    endloop
  endfacet
  facet normal -0.000000e+000 8.442128e-001 0.000000e+000
    outer loop
      vertex   -4.500000e+001 4.500000e+001 3.150000e+001
      vertex   -2.500000e+001 4.500000e+001 3.150000e+001
      vertex   -2.500000e+001 4.500000e+001 0.000000e+000
    endloop
  endfacet
  facet normal 0.000000e+000 5.360081e-001 0.000000e+000
    outer loop
      vertex   -4.500000e+001 4.500000e+001 3.150000e+001
      vertex   -2.500000e+001 4.500000e+001 0.000000e+000
      vertex   -4.500000e+001 4.500000e+001 0.000000e+000
    endloop
  endfacet
  facet normal 1.000000e+000 -0.000000e+000 0.000000e+000
    outer loop
      vertex   -2.500000e+001 2.500000e+001 6.300000e+001
      vertex   -2.500000e+001 2.500000e+001 3.150000e+001
      vertex   -2.500000e+001 4.500000e+001 6.300000e+001
    endloop
  endfacet
  facet normal 5.360081e-001 0.000000e+000 0.000000e+000
    outer loop
      vertex   -2.500000e+001 4.500000e+001 6.300000e+001
      vertex   -2.500000e+001 2.500000e+001 3.150000e+001
      vertex   -2.500000e+001 4.500000e+001 3.150000e+001
    endloop
  endfacet
  facet normal 8.442128e-001 0.000000e+000 0.000000e+000
    outer loop
      vertex   -2.500000e+001 4.500000e+001 3.150000e+001
      vertex   -2.500000e+001 2.500000e+001 3.150000e+001
      vertex   -2.500000e+001 2.500000e+001 0.000000e+000
    endloop
  endfacet
  facet normal 5.360081e-001 0.000000e+000 0.000000e+000
    outer loop
      vertex   -2.500000e+001 4.500000e+001 3.150000e+001
      vertex   -2.500000e+001 2.500000e+001 0.000000e+000
      vertex   -2.500000e+001 4.500000e+001 0.000000e+000
    endloop
  endfacet
endsolid
